# xmcd
#
# Track frame offsets:
#	150
#	23075
#	47683
#	67370
#	85060
#	115468
#	135898
#	170103
#	188040
#	205313
#	227303
#	249145
#
# Disc length: 3583 seconds
# Revision: 6
# Processed by: cddbd v1.5.2PL0 Copyright (c) Steve Scherf et al.
# Submitted via: dBpowerAMP V12.0
#
DISCID=9b0dfd0c
DTITLE=Various Artist - Blues Bureau International Presents
DYEAR=1993
DGENRE=Blues
TTITLE0=Rick Derringer - Trouble In Paradise
TTITLE1=Frank Marino - I'll Play The Blues For You
TTITLE2=Webber - Worried About You
TTITLE3=Pat Travers - Cold Shot
TTITLE4=Johnny Nitro - Runnin' On Fumes
TTITLE5=Glenn Hughes - Right To Live
TTITLE6=Kevin Russell - Better Days
TTITLE7=Craig Erickson - The Storm
TTITLE8=Blindside Bluesband - Bad Premonition
TTITLE9=K. Dubrow - How Blue Can You Get
TTITLE10=Pat Travers - Too Cool Woman Blues
TTITLE11=Leslie West - Whiskey Train
EXTD=
EXTT0=
EXTT1=
EXTT2=
EXTT3=
EXTT4=
EXTT5=
EXTT6=
EXTT7=
EXTT8=
EXTT9=
EXTT10=
EXTT11=
PLAYORDER=
